<svg id="Row_6" data-name="Row 6" xmlns="http://www.w3.org/2000/svg" width="53" height="53" viewBox="0 0 53 53">
  <metadata><?xpacket begin="﻿" id="W5M0MpCehiHzreSzNTczkc9d"?>
<x:xmpmeta xmlns:x="adobe:ns:meta/" x:xmptk="Adobe XMP Core 5.6-c142 79.160924, 2017/07/13-01:06:39        ">
   <rdf:RDF xmlns:rdf="http://www.w3.org/1999/02/22-rdf-syntax-ns#">
      <rdf:Description rdf:about=""/>
   </rdf:RDF>
</x:xmpmeta>
                                                                                                    
                                                                                                    
                                                                                                    
                                                                                                    
                                                                                                    
                                                                                                    
                                                                                                    
                                                                                                    
                                                                                                    
                                                                                                    
                                                                                                    
                                                                                                    
                                                                                                    
                                                                                                    
                                                                                                    
                                                                                                    
                                                                                                    
                                                                                                    
                                                                                                    
                                                                                                    
                           
<?xpacket end="w"?></metadata>
<defs>
    <style>
      .cls-1 {
        fill: #fff;
        fill-rule: evenodd;
      }
    </style>
  </defs>
  <path id="User" class="cls-1" d="M26.518,51.29a24.437,24.437,0,1,1,24.4-24.437A24.448,24.448,0,0,1,26.518,51.29Zm15.061-8.243a16.479,16.479,0,0,0-4.758-1.623c-2.393-.594-5.586-1.027-5.306-3.782A7.535,7.535,0,0,1,23.871,38.9c-0.824-.339-1.378-1.041-1.979-0.991,0.167,2.684-3.094,2.973-5.306,3.512a14.255,14.255,0,0,0-4.927,1.807A21.979,21.979,0,0,0,41.579,43.047Zm-13.391-29.9c-7.428-.64-11.058,4.441-9.982,11.888a1.053,1.053,0,0,0-.809.45c0.02,2.231.439,4.064,2.069,4.683,0.811,3.664,3.4,7.955,8,7.385,3.72-.46,5.758-4.075,6.565-7.385,1.566-.633,2.127-2.719,1.979-4.773-0.034-.357-0.6-0.182-0.809-0.36C36.537,19.2,33.173,13.576,28.188,13.146Zm-1.67-8.458A22.133,22.133,0,0,0,10.24,41.818a6.783,6.783,0,0,1,1.31-.934c2.367-1.252,5.465-1.1,8.364-2.521V35.841c-1.17-1.058-1.355-2.8-2.158-4.233a25.236,25.236,0,0,1-1.619-2.251,7.475,7.475,0,0,1-.719-3.782c0.08-.749.547-1.224,0.63-1.891,0.115-.932-0.084-1.9,0-2.792a10.657,10.657,0,0,1,9.173-9.726h3.058c5.235,0.863,8.819,4.738,9.173,10.447,0.041,0.669-.2,1.412-0.09,2.162a20.158,20.158,0,0,1,.72,2.071,7.513,7.513,0,0,1-2.428,5.764,12.225,12.225,0,0,1-2.068,4.233v2.432c2.424,1.44,5.691,1.33,8.094,2.522a7.64,7.64,0,0,1,1.294.831A22.132,22.132,0,0,0,26.518,4.689Z"/>
</svg>
